<svg width="211" height="43" viewBox="0 0 211 43" fill="none" xmlns="http://www.w3.org/2000/svg">
<path d="M22.224 33.6001L10.848 17.2321L15.888 14.1121L29.28 33.6001H22.224ZM2.07424e-05 33.6001V9.53674e-05H6.14402V33.6001H2.07424e-05ZM4.27202 19.4401V14.0641H15.6V19.4401H4.27202ZM16.464 17.5201L10.752 16.7521L22.224 9.53674e-05H28.848L16.464 17.5201ZM43.9395 33.9361C41.3155 33.9361 38.9795 33.3761 36.9315 32.2561C34.8835 31.1041 33.2675 29.5361 32.0835 27.5521C30.8995 25.5681 30.3075 23.3121 30.3075 20.7841C30.3075 18.2241 30.8995 15.9681 32.0835 14.0161C33.2675 12.0321 34.8835 10.4801 36.9315 9.3601C38.9795 8.2401 41.3155 7.6801 43.9395 7.6801C46.5955 7.6801 48.9475 8.2401 50.9955 9.3601C53.0755 10.4801 54.6915 12.0161 55.8435 13.9681C57.0275 15.9201 57.6195 18.1921 57.6195 20.7841C57.6195 23.3121 57.0275 25.5681 55.8435 27.5521C54.6915 29.5361 53.0755 31.1041 50.9955 32.2561C48.9475 33.3761 46.5955 33.9361 43.9395 33.9361ZM43.9395 28.8001C45.4115 28.8001 46.7235 28.4801 47.8755 27.8401C49.0275 27.2001 49.9235 26.2721 50.5635 25.0561C51.2355 23.8401 51.5715 22.4161 51.5715 20.7841C51.5715 19.1201 51.2355 17.6961 50.5635 16.5121C49.9235 15.2961 49.0275 14.3681 47.8755 13.7281C46.7235 13.0881 45.4275 12.7681 43.9875 12.7681C42.5155 12.7681 41.2035 13.0881 40.0515 13.7281C38.9315 14.3681 38.0355 15.2961 37.3635 16.5121C36.6915 17.6961 36.3555 19.1201 36.3555 20.7841C36.3555 22.4161 36.6915 23.8401 37.3635 25.0561C38.0355 26.2721 38.9315 27.2001 40.0515 27.8401C41.2035 28.4801 42.4995 28.8001 43.9395 28.8001ZM77.7548 33.9361C75.6748 33.9361 73.7708 33.4561 72.0428 32.4961C70.3468 31.5361 68.9868 30.0961 67.9628 28.1761C66.9708 26.2241 66.4748 23.7601 66.4748 20.7841C66.4748 17.7761 66.9548 15.3121 67.9148 13.3921C68.9068 11.4721 70.2508 10.0481 71.9468 9.1201C73.6428 8.1601 75.5788 7.6801 77.7548 7.6801C80.2828 7.6801 82.5068 8.2241 84.4268 9.3121C86.3788 10.4001 87.9148 11.9201 89.0348 13.8721C90.1868 15.8241 90.7628 18.1281 90.7628 20.7841C90.7628 23.4401 90.1868 25.7601 89.0348 27.7441C87.9148 29.6961 86.3788 31.2161 84.4268 32.3041C82.5068 33.3921 80.2828 33.9361 77.7548 33.9361ZM63.5468 42.9121V7.9681H69.2588V14.0161L69.0668 20.8321L69.5468 27.6481V42.9121H63.5468ZM77.0828 28.8001C78.5228 28.8001 79.8028 28.4801 80.9228 27.8401C82.0748 27.2001 82.9868 26.2721 83.6588 25.0561C84.3308 23.8401 84.6668 22.4161 84.6668 20.7841C84.6668 19.1201 84.3308 17.6961 83.6588 16.5121C82.9868 15.2961 82.0748 14.3681 80.9228 13.7281C79.8028 13.0881 78.5228 12.7681 77.0828 12.7681C75.6428 12.7681 74.3468 13.0881 73.1948 13.7281C72.0428 14.3681 71.1308 15.2961 70.4588 16.5121C69.7868 17.6961 69.4508 19.1201 69.4508 20.7841C69.4508 22.4161 69.7868 23.8401 70.4588 25.0561C71.1308 26.2721 72.0428 27.2001 73.1948 27.8401C74.3468 28.4801 75.6428 28.8001 77.0828 28.8001ZM104.471 34.0321C102.519 34.0321 100.583 33.8081 98.6633 33.3601C96.7753 32.8801 95.0633 32.2081 93.5273 31.3441L95.2073 26.8801C96.4553 27.5841 97.8633 28.1281 99.4313 28.5121C100.999 28.8961 102.567 29.0881 104.135 29.0881C105.479 29.0881 106.631 28.9601 107.591 28.7041C108.551 28.4161 109.287 28.0001 109.799 27.4561C110.343 26.9121 110.615 26.2881 110.615 25.5841C110.615 24.5601 110.167 23.7921 109.271 23.2801C108.407 22.7361 107.159 22.4641 105.527 22.4641H100.583V18.4321H105.047C106.071 18.4321 106.935 18.3201 107.639 18.0961C108.375 17.8721 108.935 17.5361 109.319 17.0881C109.703 16.6401 109.895 16.1121 109.895 15.5041C109.895 14.8961 109.655 14.3681 109.175 13.9201C108.727 13.4401 108.071 13.0881 107.207 12.8641C106.343 12.6081 105.303 12.4801 104.087 12.4801C102.807 12.4801 101.479 12.6401 100.103 12.9601C98.7593 13.2801 97.3833 13.7441 95.9753 14.3521L94.4393 9.9361C96.0713 9.2001 97.6553 8.6401 99.1913 8.2561C100.759 7.8401 102.311 7.6161 103.847 7.5841C106.183 7.4881 108.263 7.7281 110.087 8.3041C111.911 8.8801 113.351 9.7121 114.407 10.8001C115.463 11.8881 115.991 13.1681 115.991 14.6401C115.991 15.8561 115.607 16.9601 114.839 17.9521C114.103 18.9121 113.079 19.6641 111.767 20.2081C110.487 20.7521 109.015 21.0241 107.351 21.0241L107.543 19.7281C110.391 19.7281 112.631 20.3041 114.263 21.4561C115.895 22.5761 116.711 24.1121 116.711 26.0641C116.711 27.6321 116.183 29.0241 115.127 30.2401C114.071 31.4241 112.615 32.3521 110.759 33.0241C108.935 33.6961 106.839 34.0321 104.471 34.0321ZM122.891 33.6001V7.9681H128.891V24.8641L143.051 7.9681H148.523V33.6001H142.523V16.7041L128.411 33.6001H122.891ZM156.594 33.6001V7.9681H162.594V18.3841H175.506V7.9681H181.506V33.6001H175.506V23.4721H162.594V33.6001H156.594ZM205.099 33.6001V28.4161L204.763 27.3121V18.2401C204.763 16.4801 204.235 15.1201 203.179 14.1601C202.123 13.1681 200.523 12.6721 198.379 12.6721C196.939 12.6721 195.515 12.8961 194.107 13.3441C192.731 13.7921 191.563 14.4161 190.603 15.2161L188.251 10.8481C189.627 9.7921 191.259 9.0081 193.147 8.4961C195.067 7.9521 197.051 7.6801 199.099 7.6801C202.811 7.6801 205.675 8.5761 207.691 10.3681C209.739 12.1281 210.763 14.8641 210.763 18.5761V33.6001H205.099ZM197.035 33.9361C195.115 33.9361 193.435 33.6161 191.995 32.9761C190.555 32.3041 189.435 31.3921 188.635 30.2401C187.867 29.0561 187.483 27.7281 187.483 26.2561C187.483 24.8161 187.819 23.5201 188.491 22.3681C189.195 21.2161 190.331 20.3041 191.899 19.6321C193.467 18.9601 195.547 18.6241 198.139 18.6241H205.579V22.6081H198.571C196.523 22.6081 195.147 22.9441 194.443 23.6161C193.739 24.2561 193.387 25.0561 193.387 26.0161C193.387 27.1041 193.819 27.9681 194.683 28.6081C195.547 29.2481 196.747 29.5681 198.283 29.5681C199.755 29.5681 201.067 29.2321 202.219 28.5601C203.403 27.8881 204.251 26.8961 204.763 25.5841L205.771 29.1841C205.195 30.6881 204.155 31.8561 202.651 32.6881C201.179 33.5201 199.307 33.9361 197.035 33.9361Z" fill="white"/>
</svg>
